<svg xmlns="http://www.w3.org/2000/svg" xmlns:xlink="http://www.w3.org/1999/xlink" width="140" zoomAndPan="magnify" viewBox="0 0 104.88 30.000001" height="40" preserveAspectRatio="xMidYMid meet" version="1.0"><defs><g/><clipPath id="5002cb9ee1"><path d="M 2.234375 1.015625 L 102.644531 1.015625 L 102.644531 28.226562 L 2.234375 28.226562 Z M 2.234375 1.015625 " clip-rule="nonzero"/></clipPath><clipPath id="c90dd574cf"><path d="M 5.863281 1.015625 L 99.015625 1.015625 C 99.980469 1.015625 100.902344 1.398438 101.582031 2.078125 C 102.261719 2.757812 102.644531 3.683594 102.644531 4.644531 L 102.644531 24.597656 C 102.644531 25.5625 102.261719 26.484375 101.582031 27.164062 C 100.902344 27.847656 99.980469 28.226562 99.015625 28.226562 L 5.863281 28.226562 C 4.902344 28.226562 3.976562 27.847656 3.296875 27.164062 C 2.617188 26.484375 2.234375 25.5625 2.234375 24.597656 L 2.234375 4.644531 C 2.234375 3.683594 2.617188 2.757812 3.296875 2.078125 C 3.976562 1.398438 4.902344 1.015625 5.863281 1.015625 Z M 5.863281 1.015625 " clip-rule="nonzero"/></clipPath><radialGradient gradientTransform="matrix(1, 0, 0, 1, 2.233662, 1.01613)" gradientUnits="userSpaceOnUse" r="52.016685" cx="50.205688" id="04c7801fac" cy="13.606137" fx="50.205688" fy="13.606137"><stop stop-opacity="1" stop-color="rgb(2.813721%, 0.398254%, 36.456299%)" offset="0"/><stop stop-opacity="1" stop-color="rgb(3.102112%, 0.393677%, 36.347961%)" offset="0.0078125"/><stop stop-opacity="1" stop-color="rgb(3.448486%, 0.389099%, 36.219788%)" offset="0.0195312"/><stop stop-opacity="1" stop-color="rgb(3.793335%, 0.382996%, 36.090088%)" offset="0.03125"/><stop stop-opacity="1" stop-color="rgb(4.139709%, 0.378418%, 35.961914%)" offset="0.0429688"/><stop stop-opacity="1" stop-color="rgb(4.484558%, 0.37384%, 35.832214%)" offset="0.0546875"/><stop stop-opacity="1" stop-color="rgb(4.830933%, 0.369263%, 35.704041%)" offset="0.0664062"/><stop stop-opacity="1" stop-color="rgb(5.175781%, 0.364685%, 35.574341%)" offset="0.078125"/><stop stop-opacity="1" stop-color="rgb(5.522156%, 0.360107%, 35.446167%)" offset="0.0898438"/><stop stop-opacity="1" stop-color="rgb(5.867004%, 0.35553%, 35.317993%)" offset="0.101562"/><stop stop-opacity="1" stop-color="rgb(6.213379%, 0.350952%, 35.188293%)" offset="0.113281"/><stop stop-opacity="1" stop-color="rgb(6.559753%, 0.346375%, 35.06012%)" offset="0.125"/><stop stop-opacity="1" stop-color="rgb(6.904602%, 0.341797%, 34.93042%)" offset="0.136719"/><stop stop-opacity="1" stop-color="rgb(7.250977%, 0.337219%, 34.802246%)" offset="0.148438"/><stop stop-opacity="1" stop-color="rgb(7.595825%, 0.332642%, 34.672546%)" offset="0.160156"/><stop stop-opacity="1" stop-color="rgb(7.9422%, 0.328064%, 34.544373%)" offset="0.171875"/><stop stop-opacity="1" stop-color="rgb(8.287048%, 0.323486%, 34.414673%)" offset="0.183594"/><stop stop-opacity="1" stop-color="rgb(8.633423%, 0.317383%, 34.286499%)" offset="0.195312"/><stop stop-opacity="1" stop-color="rgb(8.979797%, 0.312805%, 34.156799%)" offset="0.207031"/><stop stop-opacity="1" stop-color="rgb(9.324646%, 0.308228%, 34.028625%)" offset="0.21875"/><stop stop-opacity="1" stop-color="rgb(9.671021%, 0.30365%, 33.898926%)" offset="0.230469"/><stop stop-opacity="1" stop-color="rgb(10.015869%, 0.299072%, 33.770752%)" offset="0.242188"/><stop stop-opacity="1" stop-color="rgb(10.30426%, 0.296021%, 33.662415%)" offset="0.253906"/><stop stop-opacity="1" stop-color="rgb(10.534668%, 0.292969%, 33.576965%)" offset="0.261719"/><stop stop-opacity="1" stop-color="rgb(10.765076%, 0.289917%, 33.491516%)" offset="0.269531"/><stop stop-opacity="1" stop-color="rgb(10.995483%, 0.286865%, 33.404541%)" offset="0.277344"/><stop stop-opacity="1" stop-color="rgb(11.225891%, 0.283813%, 33.319092%)" offset="0.285156"/><stop stop-opacity="1" stop-color="rgb(11.456299%, 0.280762%, 33.233643%)" offset="0.292969"/><stop stop-opacity="1" stop-color="rgb(11.686707%, 0.27771%, 33.148193%)" offset="0.300781"/><stop stop-opacity="1" stop-color="rgb(11.917114%, 0.274658%, 33.061218%)" offset="0.308594"/><stop stop-opacity="1" stop-color="rgb(12.147522%, 0.271606%, 32.975769%)" offset="0.316406"/><stop stop-opacity="1" stop-color="rgb(12.37793%, 0.268555%, 32.89032%)" offset="0.324219"/><stop stop-opacity="1" stop-color="rgb(12.608337%, 0.265503%, 32.803345%)" offset="0.332031"/><stop stop-opacity="1" stop-color="rgb(12.838745%, 0.262451%, 32.717896%)" offset="0.339844"/><stop stop-opacity="1" stop-color="rgb(13.069153%, 0.257874%, 32.632446%)" offset="0.347656"/><stop stop-opacity="1" stop-color="rgb(13.299561%, 0.254822%, 32.545471%)" offset="0.355469"/><stop stop-opacity="1" stop-color="rgb(13.529968%, 0.25177%, 32.460022%)" offset="0.363281"/><stop stop-opacity="1" stop-color="rgb(13.760376%, 0.248718%, 32.374573%)" offset="0.371094"/><stop stop-opacity="1" stop-color="rgb(13.990784%, 0.245667%, 32.287598%)" offset="0.378906"/><stop stop-opacity="1" stop-color="rgb(14.221191%, 0.242615%, 32.202148%)" offset="0.386719"/><stop stop-opacity="1" stop-color="rgb(14.453125%, 0.239563%, 32.116699%)" offset="0.394531"/><stop stop-opacity="1" stop-color="rgb(14.683533%, 0.236511%, 32.029724%)" offset="0.402344"/><stop stop-opacity="1" stop-color="rgb(14.91394%, 0.233459%, 31.944275%)" offset="0.410156"/><stop stop-opacity="1" stop-color="rgb(15.144348%, 0.230408%, 31.858826%)" offset="0.417969"/><stop stop-opacity="1" stop-color="rgb(15.374756%, 0.227356%, 31.771851%)" offset="0.425781"/><stop stop-opacity="1" stop-color="rgb(15.605164%, 0.224304%, 31.686401%)" offset="0.433594"/><stop stop-opacity="1" stop-color="rgb(15.835571%, 0.221252%, 31.600952%)" offset="0.441406"/><stop stop-opacity="1" stop-color="rgb(16.065979%, 0.218201%, 31.513977%)" offset="0.449219"/><stop stop-opacity="1" stop-color="rgb(16.296387%, 0.215149%, 31.428528%)" offset="0.457031"/><stop stop-opacity="1" stop-color="rgb(16.526794%, 0.212097%, 31.343079%)" offset="0.464844"/><stop stop-opacity="1" stop-color="rgb(16.757202%, 0.209045%, 31.256104%)" offset="0.472656"/><stop stop-opacity="1" stop-color="rgb(16.98761%, 0.205994%, 31.170654%)" offset="0.480469"/><stop stop-opacity="1" stop-color="rgb(17.218018%, 0.202942%, 31.085205%)" offset="0.488281"/><stop stop-opacity="1" stop-color="rgb(17.448425%, 0.19989%, 30.999756%)" offset="0.496094"/><stop stop-opacity="1" stop-color="rgb(17.736816%, 0.195312%, 30.891418%)" offset="0.503906"/><stop stop-opacity="1" stop-color="rgb(18.083191%, 0.189209%, 30.763245%)" offset="0.515625"/><stop stop-opacity="1" stop-color="rgb(18.42804%, 0.184631%, 30.633545%)" offset="0.527344"/><stop stop-opacity="1" stop-color="rgb(18.774414%, 0.180054%, 30.505371%)" offset="0.539062"/><stop stop-opacity="1" stop-color="rgb(19.119263%, 0.175476%, 30.375671%)" offset="0.550781"/><stop stop-opacity="1" stop-color="rgb(19.465637%, 0.170898%, 30.247498%)" offset="0.5625"/><stop stop-opacity="1" stop-color="rgb(19.810486%, 0.166321%, 30.117798%)" offset="0.574219"/><stop stop-opacity="1" stop-color="rgb(20.15686%, 0.161743%, 29.989624%)" offset="0.585938"/><stop stop-opacity="1" stop-color="rgb(20.503235%, 0.157166%, 29.859924%)" offset="0.597656"/><stop stop-opacity="1" stop-color="rgb(20.848083%, 0.152588%, 29.73175%)" offset="0.609375"/><stop stop-opacity="1" stop-color="rgb(21.194458%, 0.14801%, 29.602051%)" offset="0.621094"/><stop stop-opacity="1" stop-color="rgb(21.481323%, 0.144958%, 29.495239%)" offset="0.632812"/><stop stop-opacity="1" stop-color="rgb(21.711731%, 0.141907%, 29.40979%)" offset="0.640625"/><stop stop-opacity="1" stop-color="rgb(21.942139%, 0.138855%, 29.322815%)" offset="0.648438"/><stop stop-opacity="1" stop-color="rgb(22.172546%, 0.135803%, 29.237366%)" offset="0.65625"/><stop stop-opacity="1" stop-color="rgb(22.402954%, 0.132751%, 29.151917%)" offset="0.664062"/><stop stop-opacity="1" stop-color="rgb(22.633362%, 0.128174%, 29.064941%)" offset="0.671875"/><stop stop-opacity="1" stop-color="rgb(22.86377%, 0.125122%, 28.979492%)" offset="0.679688"/><stop stop-opacity="1" stop-color="rgb(23.095703%, 0.12207%, 28.894043%)" offset="0.6875"/><stop stop-opacity="1" stop-color="rgb(23.326111%, 0.119019%, 28.807068%)" offset="0.695312"/><stop stop-opacity="1" stop-color="rgb(23.556519%, 0.115967%, 28.721619%)" offset="0.703125"/><stop stop-opacity="1" stop-color="rgb(23.786926%, 0.112915%, 28.636169%)" offset="0.710938"/><stop stop-opacity="1" stop-color="rgb(24.017334%, 0.109863%, 28.549194%)" offset="0.71875"/><stop stop-opacity="1" stop-color="rgb(24.247742%, 0.106812%, 28.463745%)" offset="0.726562"/><stop stop-opacity="1" stop-color="rgb(24.478149%, 0.10376%, 28.378296%)" offset="0.734375"/><stop stop-opacity="1" stop-color="rgb(24.708557%, 0.100708%, 28.291321%)" offset="0.742188"/><stop stop-opacity="1" stop-color="rgb(24.938965%, 0.0976562%, 28.205872%)" offset="0.75"/><stop stop-opacity="1" stop-color="rgb(25.227356%, 0.0930786%, 28.09906%)" offset="0.757812"/><stop stop-opacity="1" stop-color="rgb(25.572205%, 0.088501%, 27.96936%)" offset="0.769531"/><stop stop-opacity="1" stop-color="rgb(25.918579%, 0.0839233%, 27.841187%)" offset="0.78125"/><stop stop-opacity="1" stop-color="rgb(26.264954%, 0.0793457%, 27.711487%)" offset="0.792969"/><stop stop-opacity="1" stop-color="rgb(26.609802%, 0.0747681%, 27.583313%)" offset="0.804688"/><stop stop-opacity="1" stop-color="rgb(26.898193%, 0.0717163%, 27.474976%)" offset="0.816406"/><stop stop-opacity="1" stop-color="rgb(27.128601%, 0.0686646%, 27.389526%)" offset="0.824219"/><stop stop-opacity="1" stop-color="rgb(27.359009%, 0.0640869%, 27.304077%)" offset="0.832031"/><stop stop-opacity="1" stop-color="rgb(27.589417%, 0.0610352%, 27.217102%)" offset="0.839844"/><stop stop-opacity="1" stop-color="rgb(27.819824%, 0.0579834%, 27.131653%)" offset="0.847656"/><stop stop-opacity="1" stop-color="rgb(28.050232%, 0.0549316%, 27.046204%)" offset="0.855469"/><stop stop-opacity="1" stop-color="rgb(28.28064%, 0.0518799%, 26.959229%)" offset="0.863281"/><stop stop-opacity="1" stop-color="rgb(28.511047%, 0.0488281%, 26.873779%)" offset="0.871094"/><stop stop-opacity="1" stop-color="rgb(28.799438%, 0.0442505%, 26.766968%)" offset="0.878906"/><stop stop-opacity="1" stop-color="rgb(29.145813%, 0.0396729%, 26.637268%)" offset="0.890625"/><stop stop-opacity="1" stop-color="rgb(29.490662%, 0.0350952%, 26.509094%)" offset="0.902344"/><stop stop-opacity="1" stop-color="rgb(29.779053%, 0.0320435%, 26.400757%)" offset="0.914062"/><stop stop-opacity="1" stop-color="rgb(30.00946%, 0.0289917%, 26.315308%)" offset="0.921875"/><stop stop-opacity="1" stop-color="rgb(30.239868%, 0.0259399%, 26.229858%)" offset="0.929688"/><stop stop-opacity="1" stop-color="rgb(30.470276%, 0.0228882%, 26.142883%)" offset="0.9375"/><stop stop-opacity="1" stop-color="rgb(30.758667%, 0.0183105%, 26.036072%)" offset="0.945312"/><stop stop-opacity="1" stop-color="rgb(31.045532%, 0.0152588%, 25.92926%)" offset="0.957031"/><stop stop-opacity="1" stop-color="rgb(31.27594%, 0.012207%, 25.842285%)" offset="0.964844"/><stop stop-opacity="1" stop-color="rgb(31.564331%, 0.00762939%, 25.735474%)" offset="0.972656"/><stop stop-opacity="1" stop-color="rgb(31.852722%, 0.00457764%, 25.628662%)" offset="0.984375"/><stop stop-opacity="1" stop-color="rgb(32.08313%, 0.00152588%, 25.541687%)" offset="0.992188"/><stop stop-opacity="1" stop-color="rgb(32.199097%, 0%, 25.498962%)" offset="1"/></radialGradient><clipPath id="3c31f6ac1c"><path d="M 13 2.613281 L 31 2.613281 L 31 22 L 13 22 Z M 13 2.613281 " clip-rule="nonzero"/></clipPath><clipPath id="2947116e89"><path d="M 38 2.613281 L 42 2.613281 L 42 7 L 38 7 Z M 38 2.613281 " clip-rule="nonzero"/></clipPath><clipPath id="3db68127e4"><path d="M 17 25 L 19 25 L 19 26.566406 L 17 26.566406 Z M 17 25 " clip-rule="nonzero"/></clipPath><clipPath id="ff82d01598"><path d="M 6.566406 21 L 11 21 L 11 26 L 6.566406 26 Z M 6.566406 21 " clip-rule="nonzero"/></clipPath></defs><g clip-path="url(#5002cb9ee1)"><g clip-path="url(#c90dd574cf)"><path fill="url(#04c7801fac)" d="M 2.234375 1.015625 L 2.234375 28.226562 L 102.644531 28.226562 L 102.644531 1.015625 Z M 2.234375 1.015625 " fill-rule="nonzero"/></g></g><path fill="#ffffff" d="M 27.722656 24.726562 C 24.320312 25.832031 20.558594 25.230469 17.667969 23.117188 C 17.570312 23.046875 17.550781 22.910156 17.621094 22.816406 C 17.691406 22.71875 17.824219 22.699219 17.921875 22.769531 C 20.703125 24.796875 24.316406 25.378906 27.589844 24.316406 C 33.230469 22.484375 36.328125 16.40625 34.5 10.765625 C 34.019531 9.285156 33.25 7.960938 32.207031 6.824219 C 32.125 6.734375 32.132812 6.597656 32.21875 6.515625 C 32.308594 6.4375 32.445312 6.441406 32.523438 6.53125 C 33.609375 7.714844 34.410156 9.09375 34.910156 10.632812 C 36.816406 16.5 33.589844 22.824219 27.722656 24.726562 " fill-opacity="1" fill-rule="nonzero"/><g clip-path="url(#3c31f6ac1c)"><path fill="#ffffff" d="M 16.421875 21.890625 C 16.34375 21.917969 16.257812 21.898438 16.199219 21.835938 C 15.019531 20.613281 14.15625 19.164062 13.628906 17.539062 C 11.722656 11.667969 14.949219 5.347656 20.816406 3.441406 C 22.535156 2.886719 24.300781 2.75 26.070312 3.039062 C 27.757812 3.316406 29.386719 3.988281 30.78125 4.988281 C 30.878906 5.054688 30.898438 5.191406 30.832031 5.289062 C 30.761719 5.386719 30.625 5.40625 30.53125 5.339844 C 27.761719 3.359375 24.179688 2.804688 20.949219 3.855469 C 15.308594 5.683594 12.207031 11.761719 14.039062 17.402344 C 14.546875 18.96875 15.378906 20.359375 16.507812 21.535156 C 16.59375 21.621094 16.589844 21.757812 16.503906 21.84375 C 16.480469 21.863281 16.449219 21.882812 16.421875 21.890625 " fill-opacity="1" fill-rule="nonzero"/></g><path fill="#ffffff" d="M 8.902344 21.539062 C 8.75 21.492188 8.59375 21.464844 8.433594 21.457031 C 9.414062 19.941406 11.277344 18.234375 12.625 17.097656 C 12.71875 17.023438 12.851562 17.035156 12.929688 17.125 C 13.007812 17.21875 12.996094 17.351562 12.90625 17.429688 C 10.859375 19.152344 9.597656 20.515625 8.902344 21.539062 " fill-opacity="1" fill-rule="nonzero"/><path fill="#ffffff" d="M 34.316406 12.359375 C 32.027344 14.136719 29.296875 15.984375 26.417969 17.695312 C 22.089844 20.273438 17.808594 22.339844 14.359375 23.511719 C 14.214844 23.5625 14.066406 23.609375 13.917969 23.660156 C 12.691406 24.058594 11.355469 24.40625 10.242188 24.492188 C 10.308594 24.351562 10.359375 24.203125 10.390625 24.050781 C 13.398438 23.738281 19.230469 21.476562 26.199219 17.324219 C 29.0625 15.621094 31.777344 13.785156 34.050781 12.019531 C 34.144531 11.945312 34.28125 11.964844 34.351562 12.058594 C 34.425781 12.152344 34.410156 12.289062 34.316406 12.359375 " fill-opacity="1" fill-rule="nonzero"/><path fill="#ffffff" d="M 38.097656 4.125 C 35.078125 4.457031 29.273438 6.71875 22.339844 10.84375 C 19.546875 12.507812 16.886719 14.296875 14.648438 16.023438 C 14.554688 16.097656 14.417969 16.082031 14.347656 15.988281 C 14.273438 15.890625 14.289062 15.757812 14.386719 15.683594 C 16.636719 13.945312 19.3125 12.144531 22.117188 10.472656 C 26.445312 7.894531 30.730469 5.832031 34.179688 4.65625 C 35.484375 4.214844 36.960938 3.800781 38.1875 3.6875 C 38.140625 3.828125 38.113281 3.972656 38.097656 4.125 " fill-opacity="1" fill-rule="nonzero"/><path fill="#ffffff" d="M 40.257812 6.464844 C 39.339844 8.019531 37.378906 9.828125 35.980469 11.011719 C 35.960938 11.03125 35.933594 11.042969 35.910156 11.054688 C 35.828125 11.078125 35.734375 11.054688 35.675781 10.988281 C 35.601562 10.894531 35.613281 10.757812 35.703125 10.683594 C 37.851562 8.863281 39.125 7.453125 39.777344 6.417969 C 39.921875 6.449219 40.074219 6.46875 40.230469 6.46875 C 40.238281 6.46875 40.246094 6.46875 40.257812 6.464844 " fill-opacity="1" fill-rule="nonzero"/><g clip-path="url(#2947116e89)"><path fill="#ffffff" d="M 40.230469 2.972656 C 39.484375 2.972656 38.878906 3.582031 38.878906 4.324219 C 38.878906 5.070312 39.484375 5.679688 40.230469 5.679688 C 40.976562 5.679688 41.582031 5.070312 41.582031 4.324219 C 41.582031 3.582031 40.976562 2.972656 40.230469 2.972656 Z M 40.230469 6.039062 C 39.285156 6.039062 38.519531 5.269531 38.519531 4.324219 C 38.519531 3.382812 39.285156 2.613281 40.230469 2.613281 C 41.175781 2.613281 41.941406 3.382812 41.941406 4.324219 C 41.941406 5.269531 41.175781 6.039062 40.230469 6.039062 " fill-opacity="1" fill-rule="nonzero"/></g><path fill="#ffffff" d="M 20.148438 7.320312 C 19.710938 7.320312 19.355469 7.675781 19.355469 8.117188 C 19.355469 8.554688 19.710938 8.910156 20.148438 8.910156 C 20.585938 8.910156 20.941406 8.554688 20.941406 8.117188 C 20.941406 7.675781 20.585938 7.320312 20.148438 7.320312 Z M 20.148438 9.269531 C 19.511719 9.269531 18.996094 8.753906 18.996094 8.117188 C 18.996094 7.480469 19.511719 6.960938 20.148438 6.960938 C 20.785156 6.960938 21.304688 7.480469 21.304688 8.117188 C 21.304688 8.753906 20.785156 9.269531 20.148438 9.269531 " fill-opacity="1" fill-rule="nonzero"/><g clip-path="url(#3db68127e4)"><path fill="#ffffff" d="M 17.683594 25.726562 C 17.539062 25.726562 17.417969 25.847656 17.417969 25.996094 C 17.417969 26.140625 17.539062 26.261719 17.683594 26.261719 C 17.832031 26.261719 17.953125 26.140625 17.953125 25.996094 C 17.953125 25.847656 17.832031 25.726562 17.683594 25.726562 Z M 17.683594 26.621094 C 17.339844 26.621094 17.058594 26.339844 17.058594 25.996094 C 17.058594 25.648438 17.339844 25.367188 17.683594 25.367188 C 18.03125 25.367188 18.3125 25.648438 18.3125 25.996094 C 18.3125 26.339844 18.03125 26.621094 17.683594 26.621094 " fill-opacity="1" fill-rule="nonzero"/></g><path fill="#ffffff" d="M 37.605469 14.441406 C 37.460938 14.441406 37.339844 14.558594 37.339844 14.707031 C 37.339844 14.855469 37.460938 14.972656 37.605469 14.972656 C 37.753906 14.972656 37.875 14.855469 37.875 14.707031 C 37.875 14.558594 37.753906 14.441406 37.605469 14.441406 Z M 37.605469 15.335938 C 37.261719 15.335938 36.980469 15.054688 36.980469 14.707031 C 36.980469 14.363281 37.261719 14.082031 37.605469 14.082031 C 37.953125 14.082031 38.234375 14.363281 38.234375 14.707031 C 38.234375 15.054688 37.953125 15.335938 37.605469 15.335938 " fill-opacity="1" fill-rule="nonzero"/><path fill="#ffffff" d="M 37.34375 11.972656 C 36.976562 11.972656 36.679688 12.269531 36.679688 12.636719 C 36.679688 13 36.976562 13.296875 37.34375 13.296875 C 37.707031 13.296875 38.007812 13 38.007812 12.636719 C 38.007812 12.269531 37.707031 11.972656 37.34375 11.972656 Z M 37.34375 13.65625 C 36.78125 13.65625 36.320312 13.199219 36.320312 12.636719 C 36.320312 12.070312 36.78125 11.613281 37.34375 11.613281 C 37.90625 11.613281 38.367188 12.070312 38.367188 12.636719 C 38.367188 13.199219 37.90625 13.65625 37.34375 13.65625 " fill-opacity="1" fill-rule="nonzero"/><g clip-path="url(#ff82d01598)"><path fill="#ffffff" d="M 8.300781 22.242188 C 7.554688 22.242188 6.949219 22.847656 6.949219 23.59375 C 6.949219 24.339844 7.554688 24.945312 8.300781 24.945312 C 9.046875 24.945312 9.652344 24.339844 9.652344 23.59375 C 9.652344 22.847656 9.046875 22.242188 8.300781 22.242188 Z M 8.300781 25.304688 C 7.355469 25.304688 6.589844 24.535156 6.589844 23.59375 C 6.589844 22.648438 7.355469 21.878906 8.300781 21.878906 C 9.242188 21.878906 10.011719 22.648438 10.011719 23.59375 C 10.011719 24.535156 9.242188 25.304688 8.300781 25.304688 " fill-opacity="1" fill-rule="nonzero"/></g><g fill="#ffffff" fill-opacity="1"><g transform="translate(44.538379, 22.016829)"><g><path d="M 9.421875 0.5625 C 14.71875 0.5625 18.1875 -2.796875 18.1875 -7.90625 C 18.1875 -13.015625 14.71875 -16.359375 9.421875 -16.359375 C 4.125 -16.359375 0.671875 -13.015625 0.671875 -7.90625 C 0.671875 -2.796875 4.125 0.5625 9.421875 0.5625 Z M 9.421875 -2.703125 C 6.421875 -2.703125 4.46875 -4.78125 4.46875 -7.90625 C 4.46875 -11.0625 6.421875 -13.125 9.421875 -13.125 C 12.4375 -13.125 14.390625 -11.0625 14.390625 -7.90625 C 14.390625 -4.78125 12.4375 -2.703125 9.421875 -2.703125 Z M 9.421875 -2.703125 "/></g></g></g><g fill="#ffffff" fill-opacity="1"><g transform="translate(60.838326, 22.016829)"><g><path d="M 7.6875 0.5625 C 11.75 0.5625 14.59375 -1.4375 14.59375 -4.75 C 14.59375 -7.328125 12.9375 -8.796875 9.34375 -9.390625 L 7.109375 -9.8125 C 5.46875 -10.125 4.75 -10.65625 4.75 -11.609375 C 4.75 -12.75 5.734375 -13.5625 7.28125 -13.5625 C 8.8125 -13.5625 9.984375 -12.59375 10.1875 -11.0625 L 13.59375 -11.8125 C 13.1875 -14.5625 10.640625 -16.359375 7.328125 -16.359375 C 3.65625 -16.359375 1.015625 -14.359375 1.015625 -11.25 C 1.015625 -8.765625 2.578125 -7.375 6.0625 -6.703125 L 8.265625 -6.28125 C 10.125 -5.90625 10.90625 -5.328125 10.90625 -4.359375 C 10.90625 -3.125 9.71875 -2.265625 7.84375 -2.265625 C 5.734375 -2.265625 4.171875 -3.515625 3.953125 -5.390625 L 0.484375 -4.75 C 0.84375 -1.328125 3.75 0.5625 7.6875 0.5625 Z M 7.6875 0.5625 "/></g></g></g><g fill="#ffffff" fill-opacity="1"><g transform="translate(73.207599, 22.016829)"><g><path d="M 1.21875 0 L 5 0 L 5 -5.3125 L 8.640625 -5.3125 C 12.34375 -5.3125 14.8125 -7.421875 14.8125 -10.5625 C 14.8125 -13.703125 12.359375 -15.8125 8.6875 -15.8125 L 1.21875 -15.8125 Z M 5 -8.125 L 5 -13.015625 L 8.078125 -13.015625 C 9.875 -13.015625 11.015625 -12.03125 11.015625 -10.5625 C 11.015625 -9.109375 9.859375 -8.125 8.078125 -8.125 Z M 5 -8.125 "/></g></g></g><g fill="#ffffff" fill-opacity="1"><g transform="translate(85.909981, 22.016829)"><g><path d="M 1.21875 0 L 11.59375 0 L 11.59375 -3.265625 L 5.015625 -3.265625 L 5.015625 -15.8125 L 1.21875 -15.8125 Z M 1.21875 0 "/></g></g></g></svg>