<svg xmlns="http://www.w3.org/2000/svg" xmlns:xlink="http://www.w3.org/1999/xlink" width="700" zoomAndPan="magnify" viewBox="0 0 525 149.999998" height="200" preserveAspectRatio="xMidYMid meet" version="1.0"><defs><g/><clipPath id="7aea62adf0"><path d="M 1.371094 4.808594 L 523.625 4.808594 L 523.625 146.347656 L 1.371094 146.347656 Z M 1.371094 4.808594 " clip-rule="nonzero"/></clipPath><clipPath id="cd81ec4458"><path d="M 14.121094 4.808594 L 510.878906 4.808594 C 517.921875 4.808594 523.628906 10.519531 523.628906 17.558594 L 523.628906 133.597656 C 523.628906 140.636719 517.921875 146.347656 510.878906 146.347656 L 14.121094 146.347656 C 7.078125 146.347656 1.371094 140.636719 1.371094 133.597656 L 1.371094 17.558594 C 1.371094 10.519531 7.078125 4.808594 14.121094 4.808594 Z M 14.121094 4.808594 " clip-rule="nonzero"/></clipPath><radialGradient gradientTransform="matrix(1, 0, 0, 1, 1.367557, 4.810442)" gradientUnits="userSpaceOnUse" r="270.548373" cx="261.129044" id="a05520105a" cy="70.768027" fx="261.129044" fy="70.768027"><stop stop-opacity="1" stop-color="rgb(2.813721%, 0.398254%, 36.456299%)" offset="0"/><stop stop-opacity="1" stop-color="rgb(3.102112%, 0.393677%, 36.347961%)" offset="0.0078125"/><stop stop-opacity="1" stop-color="rgb(3.448486%, 0.389099%, 36.219788%)" offset="0.0195312"/><stop stop-opacity="1" stop-color="rgb(3.793335%, 0.382996%, 36.090088%)" offset="0.03125"/><stop stop-opacity="1" stop-color="rgb(4.139709%, 0.378418%, 35.961914%)" offset="0.0429688"/><stop stop-opacity="1" stop-color="rgb(4.484558%, 0.37384%, 35.832214%)" offset="0.0546875"/><stop stop-opacity="1" stop-color="rgb(4.830933%, 0.369263%, 35.704041%)" offset="0.0664062"/><stop stop-opacity="1" stop-color="rgb(5.175781%, 0.364685%, 35.574341%)" offset="0.078125"/><stop stop-opacity="1" stop-color="rgb(5.522156%, 0.360107%, 35.446167%)" offset="0.0898438"/><stop stop-opacity="1" stop-color="rgb(5.867004%, 0.35553%, 35.317993%)" offset="0.101562"/><stop stop-opacity="1" stop-color="rgb(6.213379%, 0.350952%, 35.188293%)" offset="0.113281"/><stop stop-opacity="1" stop-color="rgb(6.559753%, 0.346375%, 35.06012%)" offset="0.125"/><stop stop-opacity="1" stop-color="rgb(6.904602%, 0.341797%, 34.93042%)" offset="0.136719"/><stop stop-opacity="1" stop-color="rgb(7.250977%, 0.337219%, 34.802246%)" offset="0.148438"/><stop stop-opacity="1" stop-color="rgb(7.595825%, 0.332642%, 34.672546%)" offset="0.160156"/><stop stop-opacity="1" stop-color="rgb(7.9422%, 0.328064%, 34.544373%)" offset="0.171875"/><stop stop-opacity="1" stop-color="rgb(8.287048%, 0.323486%, 34.414673%)" offset="0.183594"/><stop stop-opacity="1" stop-color="rgb(8.633423%, 0.317383%, 34.286499%)" offset="0.195312"/><stop stop-opacity="1" stop-color="rgb(8.979797%, 0.312805%, 34.156799%)" offset="0.207031"/><stop stop-opacity="1" stop-color="rgb(9.324646%, 0.308228%, 34.028625%)" offset="0.21875"/><stop stop-opacity="1" stop-color="rgb(9.671021%, 0.30365%, 33.898926%)" offset="0.230469"/><stop stop-opacity="1" stop-color="rgb(10.015869%, 0.299072%, 33.770752%)" offset="0.242188"/><stop stop-opacity="1" stop-color="rgb(10.30426%, 0.296021%, 33.662415%)" offset="0.253906"/><stop stop-opacity="1" stop-color="rgb(10.534668%, 0.292969%, 33.576965%)" offset="0.261719"/><stop stop-opacity="1" stop-color="rgb(10.765076%, 0.289917%, 33.491516%)" offset="0.269531"/><stop stop-opacity="1" stop-color="rgb(10.995483%, 0.286865%, 33.404541%)" offset="0.277344"/><stop stop-opacity="1" stop-color="rgb(11.225891%, 0.283813%, 33.319092%)" offset="0.285156"/><stop stop-opacity="1" stop-color="rgb(11.456299%, 0.280762%, 33.233643%)" offset="0.292969"/><stop stop-opacity="1" stop-color="rgb(11.686707%, 0.27771%, 33.148193%)" offset="0.300781"/><stop stop-opacity="1" stop-color="rgb(11.917114%, 0.274658%, 33.061218%)" offset="0.308594"/><stop stop-opacity="1" stop-color="rgb(12.147522%, 0.271606%, 32.975769%)" offset="0.316406"/><stop stop-opacity="1" stop-color="rgb(12.37793%, 0.268555%, 32.89032%)" offset="0.324219"/><stop stop-opacity="1" stop-color="rgb(12.608337%, 0.265503%, 32.803345%)" offset="0.332031"/><stop stop-opacity="1" stop-color="rgb(12.838745%, 0.262451%, 32.717896%)" offset="0.339844"/><stop stop-opacity="1" stop-color="rgb(13.069153%, 0.257874%, 32.632446%)" offset="0.347656"/><stop stop-opacity="1" stop-color="rgb(13.299561%, 0.254822%, 32.545471%)" offset="0.355469"/><stop stop-opacity="1" stop-color="rgb(13.529968%, 0.25177%, 32.460022%)" offset="0.363281"/><stop stop-opacity="1" stop-color="rgb(13.760376%, 0.248718%, 32.374573%)" offset="0.371094"/><stop stop-opacity="1" stop-color="rgb(13.990784%, 0.245667%, 32.287598%)" offset="0.378906"/><stop stop-opacity="1" stop-color="rgb(14.221191%, 0.242615%, 32.202148%)" offset="0.386719"/><stop stop-opacity="1" stop-color="rgb(14.453125%, 0.239563%, 32.116699%)" offset="0.394531"/><stop stop-opacity="1" stop-color="rgb(14.683533%, 0.236511%, 32.029724%)" offset="0.402344"/><stop stop-opacity="1" stop-color="rgb(14.91394%, 0.233459%, 31.944275%)" offset="0.410156"/><stop stop-opacity="1" stop-color="rgb(15.144348%, 0.230408%, 31.858826%)" offset="0.417969"/><stop stop-opacity="1" stop-color="rgb(15.374756%, 0.227356%, 31.771851%)" offset="0.425781"/><stop stop-opacity="1" stop-color="rgb(15.605164%, 0.224304%, 31.686401%)" offset="0.433594"/><stop stop-opacity="1" stop-color="rgb(15.835571%, 0.221252%, 31.600952%)" offset="0.441406"/><stop stop-opacity="1" stop-color="rgb(16.065979%, 0.218201%, 31.513977%)" offset="0.449219"/><stop stop-opacity="1" stop-color="rgb(16.296387%, 0.215149%, 31.428528%)" offset="0.457031"/><stop stop-opacity="1" stop-color="rgb(16.526794%, 0.212097%, 31.343079%)" offset="0.464844"/><stop stop-opacity="1" stop-color="rgb(16.757202%, 0.209045%, 31.256104%)" offset="0.472656"/><stop stop-opacity="1" stop-color="rgb(16.98761%, 0.205994%, 31.170654%)" offset="0.480469"/><stop stop-opacity="1" stop-color="rgb(17.218018%, 0.202942%, 31.085205%)" offset="0.488281"/><stop stop-opacity="1" stop-color="rgb(17.448425%, 0.19989%, 30.999756%)" offset="0.496094"/><stop stop-opacity="1" stop-color="rgb(17.736816%, 0.195312%, 30.891418%)" offset="0.503906"/><stop stop-opacity="1" stop-color="rgb(18.083191%, 0.189209%, 30.763245%)" offset="0.515625"/><stop stop-opacity="1" stop-color="rgb(18.42804%, 0.184631%, 30.633545%)" offset="0.527344"/><stop stop-opacity="1" stop-color="rgb(18.774414%, 0.180054%, 30.505371%)" offset="0.539062"/><stop stop-opacity="1" stop-color="rgb(19.119263%, 0.175476%, 30.375671%)" offset="0.550781"/><stop stop-opacity="1" stop-color="rgb(19.465637%, 0.170898%, 30.247498%)" offset="0.5625"/><stop stop-opacity="1" stop-color="rgb(19.810486%, 0.166321%, 30.117798%)" offset="0.574219"/><stop stop-opacity="1" stop-color="rgb(20.15686%, 0.161743%, 29.989624%)" offset="0.585938"/><stop stop-opacity="1" stop-color="rgb(20.503235%, 0.157166%, 29.859924%)" offset="0.597656"/><stop stop-opacity="1" stop-color="rgb(20.848083%, 0.152588%, 29.73175%)" offset="0.609375"/><stop stop-opacity="1" stop-color="rgb(21.194458%, 0.14801%, 29.602051%)" offset="0.621094"/><stop stop-opacity="1" stop-color="rgb(21.481323%, 0.144958%, 29.495239%)" offset="0.632812"/><stop stop-opacity="1" stop-color="rgb(21.711731%, 0.141907%, 29.40979%)" offset="0.640625"/><stop stop-opacity="1" stop-color="rgb(21.942139%, 0.138855%, 29.322815%)" offset="0.648438"/><stop stop-opacity="1" stop-color="rgb(22.172546%, 0.135803%, 29.237366%)" offset="0.65625"/><stop stop-opacity="1" stop-color="rgb(22.402954%, 0.132751%, 29.151917%)" offset="0.664062"/><stop stop-opacity="1" stop-color="rgb(22.633362%, 0.128174%, 29.064941%)" offset="0.671875"/><stop stop-opacity="1" stop-color="rgb(22.86377%, 0.125122%, 28.979492%)" offset="0.679688"/><stop stop-opacity="1" stop-color="rgb(23.095703%, 0.12207%, 28.894043%)" offset="0.6875"/><stop stop-opacity="1" stop-color="rgb(23.326111%, 0.119019%, 28.807068%)" offset="0.695312"/><stop stop-opacity="1" stop-color="rgb(23.556519%, 0.115967%, 28.721619%)" offset="0.703125"/><stop stop-opacity="1" stop-color="rgb(23.786926%, 0.112915%, 28.636169%)" offset="0.710938"/><stop stop-opacity="1" stop-color="rgb(24.017334%, 0.109863%, 28.549194%)" offset="0.71875"/><stop stop-opacity="1" stop-color="rgb(24.247742%, 0.106812%, 28.463745%)" offset="0.726562"/><stop stop-opacity="1" stop-color="rgb(24.478149%, 0.10376%, 28.378296%)" offset="0.734375"/><stop stop-opacity="1" stop-color="rgb(24.708557%, 0.100708%, 28.291321%)" offset="0.742188"/><stop stop-opacity="1" stop-color="rgb(24.938965%, 0.0976562%, 28.205872%)" offset="0.75"/><stop stop-opacity="1" stop-color="rgb(25.227356%, 0.0930786%, 28.09906%)" offset="0.757812"/><stop stop-opacity="1" stop-color="rgb(25.572205%, 0.088501%, 27.96936%)" offset="0.769531"/><stop stop-opacity="1" stop-color="rgb(25.918579%, 0.0839233%, 27.841187%)" offset="0.78125"/><stop stop-opacity="1" stop-color="rgb(26.264954%, 0.0793457%, 27.711487%)" offset="0.792969"/><stop stop-opacity="1" stop-color="rgb(26.609802%, 0.0747681%, 27.583313%)" offset="0.804688"/><stop stop-opacity="1" stop-color="rgb(26.898193%, 0.0717163%, 27.474976%)" offset="0.816406"/><stop stop-opacity="1" stop-color="rgb(27.128601%, 0.0686646%, 27.389526%)" offset="0.824219"/><stop stop-opacity="1" stop-color="rgb(27.359009%, 0.0640869%, 27.304077%)" offset="0.832031"/><stop stop-opacity="1" stop-color="rgb(27.589417%, 0.0610352%, 27.217102%)" offset="0.839844"/><stop stop-opacity="1" stop-color="rgb(27.819824%, 0.0579834%, 27.131653%)" offset="0.847656"/><stop stop-opacity="1" stop-color="rgb(28.050232%, 0.0549316%, 27.046204%)" offset="0.855469"/><stop stop-opacity="1" stop-color="rgb(28.28064%, 0.0518799%, 26.959229%)" offset="0.863281"/><stop stop-opacity="1" stop-color="rgb(28.511047%, 0.0488281%, 26.873779%)" offset="0.871094"/><stop stop-opacity="1" stop-color="rgb(28.799438%, 0.0442505%, 26.766968%)" offset="0.878906"/><stop stop-opacity="1" stop-color="rgb(29.145813%, 0.0396729%, 26.637268%)" offset="0.890625"/><stop stop-opacity="1" stop-color="rgb(29.490662%, 0.0350952%, 26.509094%)" offset="0.902344"/><stop stop-opacity="1" stop-color="rgb(29.779053%, 0.0320435%, 26.400757%)" offset="0.914062"/><stop stop-opacity="1" stop-color="rgb(30.00946%, 0.0289917%, 26.315308%)" offset="0.921875"/><stop stop-opacity="1" stop-color="rgb(30.239868%, 0.0259399%, 26.229858%)" offset="0.929688"/><stop stop-opacity="1" stop-color="rgb(30.470276%, 0.0228882%, 26.142883%)" offset="0.9375"/><stop stop-opacity="1" stop-color="rgb(30.758667%, 0.0183105%, 26.036072%)" offset="0.945312"/><stop stop-opacity="1" stop-color="rgb(31.045532%, 0.0152588%, 25.92926%)" offset="0.957031"/><stop stop-opacity="1" stop-color="rgb(31.27594%, 0.012207%, 25.842285%)" offset="0.964844"/><stop stop-opacity="1" stop-color="rgb(31.564331%, 0.00762939%, 25.735474%)" offset="0.972656"/><stop stop-opacity="1" stop-color="rgb(31.852722%, 0.00457764%, 25.628662%)" offset="0.984375"/><stop stop-opacity="1" stop-color="rgb(32.08313%, 0.00152588%, 25.541687%)" offset="0.992188"/><stop stop-opacity="1" stop-color="rgb(32.199097%, 0%, 25.498962%)" offset="1"/></radialGradient><clipPath id="db19b7080a"><path d="M 190 13.117188 L 208 13.117188 L 208 31 L 190 31 Z M 190 13.117188 " clip-rule="nonzero"/></clipPath><clipPath id="9a08ba1e96"><path d="M 78 131 L 85 131 L 85 138.226562 L 78 138.226562 Z M 78 131 " clip-rule="nonzero"/></clipPath><clipPath id="1a27caf309"><path d="M 23.902344 113 L 42 113 L 42 132 L 23.902344 132 Z M 23.902344 113 " clip-rule="nonzero"/></clipPath></defs><rect x="-52.5" width="630" fill="#ffffff" y="-15" height="179.999997" fill-opacity="1"/><rect x="-52.5" width="630" fill="#ffffff" y="-15" height="179.999997" fill-opacity="1"/><g clip-path="url(#7aea62adf0)"><g clip-path="url(#cd81ec4458)"><path fill="url(#a05520105a)" d="M 1.371094 4.808594 L 1.371094 146.347656 L 523.625 146.347656 L 523.625 4.808594 Z M 1.371094 4.808594 " fill-rule="nonzero"/></g></g><path fill="#ffffff" d="M 133.941406 128.175781 C 116.234375 133.921875 96.675781 130.792969 81.621094 119.804688 C 81.121094 119.4375 81.011719 118.734375 81.375 118.234375 C 81.742188 117.734375 82.445312 117.625 82.945312 117.988281 C 97.421875 128.550781 116.222656 131.5625 133.246094 126.039062 C 162.601562 116.515625 178.734375 84.890625 169.210938 55.539062 C 166.714844 47.839844 162.699219 40.9375 157.277344 35.019531 C 156.859375 34.5625 156.886719 33.851562 157.347656 33.429688 C 157.804688 33.011719 158.515625 33.042969 158.933594 33.5 C 164.574219 39.65625 168.75 46.839844 171.347656 54.84375 C 181.253906 85.375 164.472656 118.273438 133.941406 128.175781 " fill-opacity="1" fill-rule="nonzero"/><path fill="#ffffff" d="M 75.140625 113.425781 C 74.742188 113.554688 74.289062 113.457031 73.980469 113.136719 C 67.855469 106.765625 63.355469 99.242188 60.605469 90.769531 C 50.703125 60.238281 67.480469 27.339844 98.015625 17.433594 C 106.945312 14.539062 116.140625 13.832031 125.34375 15.34375 C 134.125 16.777344 142.601562 20.28125 149.859375 25.464844 C 150.363281 25.824219 150.480469 26.527344 150.121094 27.035156 C 149.757812 27.539062 149.054688 27.652344 148.550781 27.292969 C 134.152344 17.003906 115.519531 14.121094 98.707031 19.574219 C 69.355469 29.097656 53.222656 60.722656 62.746094 90.078125 C 65.386719 98.21875 69.710938 105.457031 75.601562 111.578125 C 76.03125 112.027344 76.019531 112.738281 75.570312 113.167969 C 75.441406 113.289062 75.296875 113.375 75.140625 113.425781 " fill-opacity="1" fill-rule="nonzero"/><path fill="#ffffff" d="M 36.015625 111.582031 C 35.234375 111.351562 34.421875 111.207031 33.585938 111.15625 C 38.6875 103.289062 48.378906 94.398438 55.394531 88.492188 C 55.871094 88.089844 56.578125 88.152344 56.976562 88.628906 C 57.378906 89.101562 57.320312 89.8125 56.84375 90.210938 C 46.210938 99.171875 39.632812 106.261719 36.015625 111.582031 " fill-opacity="1" fill-rule="nonzero"/><path fill="#ffffff" d="M 168.25 63.835938 C 156.347656 73.082031 142.140625 82.6875 127.164062 91.601562 C 104.648438 105.007812 82.363281 115.757812 64.410156 121.867188 C 63.65625 122.121094 62.890625 122.375 62.117188 122.625 C 55.730469 124.699219 48.785156 126.511719 42.996094 126.960938 C 43.335938 126.234375 43.597656 125.464844 43.773438 124.660156 C 59.414062 123.039062 89.753906 111.257812 126.015625 89.667969 C 140.910156 80.800781 155.039062 71.253906 166.871094 62.0625 C 167.359375 61.679688 168.066406 61.769531 168.449219 62.257812 C 168.828125 62.75 168.742188 63.453125 168.25 63.835938 " fill-opacity="1" fill-rule="nonzero"/><path fill="#ffffff" d="M 187.929688 20.976562 C 172.222656 22.703125 142.007812 34.472656 105.941406 55.945312 C 91.40625 64.59375 77.566406 73.917969 65.917969 82.902344 C 65.429688 83.285156 64.722656 83.191406 64.34375 82.703125 C 63.964844 82.210938 64.058594 81.507812 64.546875 81.125 C 76.265625 72.085938 90.183594 62.710938 104.789062 54.015625 C 127.308594 40.605469 149.59375 29.859375 167.546875 23.746094 C 174.328125 21.445312 182.011719 19.289062 188.390625 18.703125 C 188.160156 19.429688 188.007812 20.1875 187.929688 20.976562 " fill-opacity="1" fill-rule="nonzero"/><path fill="#ffffff" d="M 199.160156 33.167969 C 194.386719 41.25 184.199219 50.664062 176.921875 56.816406 C 176.804688 56.914062 176.675781 56.984375 176.542969 57.03125 C 176.121094 57.164062 175.640625 57.042969 175.335938 56.6875 C 174.9375 56.210938 174.996094 55.503906 175.46875 55.101562 C 186.648438 45.648438 193.269531 38.289062 196.664062 32.914062 C 197.421875 33.085938 198.21875 33.171875 199.027344 33.171875 C 199.070312 33.171875 199.117188 33.171875 199.160156 33.167969 " fill-opacity="1" fill-rule="nonzero"/><g clip-path="url(#db19b7080a)"><path fill="#ffffff" d="M 199.027344 14.996094 C 195.148438 14.996094 191.992188 18.152344 191.992188 22.027344 C 191.992188 25.910156 195.148438 29.066406 199.027344 29.066406 C 202.90625 29.066406 206.0625 25.910156 206.0625 22.027344 C 206.0625 18.152344 202.90625 14.996094 199.027344 14.996094 Z M 199.027344 30.9375 C 194.117188 30.9375 190.117188 26.941406 190.117188 22.027344 C 190.117188 17.117188 194.117188 13.121094 199.027344 13.121094 C 203.9375 13.121094 207.9375 17.117188 207.9375 22.027344 C 207.9375 26.941406 203.9375 30.9375 199.027344 30.9375 " fill-opacity="1" fill-rule="nonzero"/></g><path fill="#ffffff" d="M 94.535156 37.613281 C 92.257812 37.613281 90.402344 39.46875 90.402344 41.75 C 90.402344 44.027344 92.257812 45.882812 94.535156 45.882812 C 96.816406 45.882812 98.671875 44.027344 98.671875 41.75 C 98.671875 39.46875 96.816406 37.613281 94.535156 37.613281 Z M 94.535156 47.753906 C 91.226562 47.753906 88.53125 45.058594 88.53125 41.75 C 88.53125 38.4375 91.226562 35.742188 94.535156 35.742188 C 97.847656 35.742188 100.542969 38.4375 100.542969 41.75 C 100.542969 45.058594 97.847656 47.753906 94.535156 47.753906 " fill-opacity="1" fill-rule="nonzero"/><g clip-path="url(#9a08ba1e96)"><path fill="#ffffff" d="M 81.71875 133.386719 C 80.953125 133.386719 80.332031 134.007812 80.332031 134.773438 C 80.332031 135.539062 80.953125 136.160156 81.71875 136.160156 C 82.484375 136.160156 83.105469 135.539062 83.105469 134.773438 C 83.105469 134.007812 82.484375 133.386719 81.71875 133.386719 Z M 81.71875 138.035156 C 79.921875 138.035156 78.457031 136.570312 78.457031 134.773438 C 78.457031 132.976562 79.921875 131.511719 81.71875 131.511719 C 83.515625 131.511719 84.980469 132.976562 84.980469 134.773438 C 84.980469 136.570312 83.515625 138.035156 81.71875 138.035156 " fill-opacity="1" fill-rule="nonzero"/></g><path fill="#ffffff" d="M 185.378906 74.660156 C 184.613281 74.660156 183.988281 75.28125 183.988281 76.046875 C 183.988281 76.8125 184.613281 77.433594 185.378906 77.433594 C 186.144531 77.433594 186.765625 76.8125 186.765625 76.046875 C 186.765625 75.28125 186.144531 74.660156 185.378906 74.660156 Z M 185.378906 79.308594 C 183.578125 79.308594 182.117188 77.84375 182.117188 76.046875 C 182.117188 74.25 183.578125 72.785156 185.378906 72.785156 C 187.175781 72.785156 188.640625 74.25 188.640625 76.046875 C 188.640625 77.84375 187.175781 79.308594 185.378906 79.308594 " fill-opacity="1" fill-rule="nonzero"/><path fill="#ffffff" d="M 184.007812 61.816406 C 182.105469 61.816406 180.558594 63.363281 180.558594 65.265625 C 180.558594 67.167969 182.105469 68.710938 184.007812 68.710938 C 185.90625 68.710938 187.453125 67.167969 187.453125 65.265625 C 187.453125 63.363281 185.90625 61.816406 184.007812 61.816406 Z M 184.007812 70.585938 C 181.074219 70.585938 178.6875 68.195312 178.6875 65.265625 C 178.6875 62.332031 181.074219 59.945312 184.007812 59.945312 C 186.9375 59.945312 189.328125 62.332031 189.328125 65.265625 C 189.328125 68.195312 186.9375 70.585938 184.007812 70.585938 " fill-opacity="1" fill-rule="nonzero"/><g clip-path="url(#1a27caf309)"><path fill="#ffffff" d="M 32.886719 115.242188 C 29.007812 115.242188 25.851562 118.398438 25.851562 122.277344 C 25.851562 126.15625 29.007812 129.3125 32.886719 129.3125 C 36.765625 129.3125 39.921875 126.15625 39.921875 122.277344 C 39.921875 118.398438 36.765625 115.242188 32.886719 115.242188 Z M 32.886719 131.183594 C 27.972656 131.183594 23.976562 127.1875 23.976562 122.277344 C 23.976562 117.363281 27.972656 113.367188 32.886719 113.367188 C 37.796875 113.367188 41.792969 117.363281 41.792969 122.277344 C 41.792969 127.1875 37.796875 131.183594 32.886719 131.183594 " fill-opacity="1" fill-rule="nonzero"/></g><g fill="#ffffff" fill-opacity="1"><g transform="translate(221.402173, 114.038944)"><g><path d="M 48.96875 2.890625 C 76.578125 2.890625 94.59375 -14.546875 94.59375 -41.125 C 94.59375 -67.6875 76.578125 -85.125 48.96875 -85.125 C 21.484375 -85.125 3.46875 -67.6875 3.46875 -41.125 C 3.46875 -14.546875 21.484375 2.890625 48.96875 2.890625 Z M 48.96875 -14.09375 C 33.375 -14.09375 23.21875 -24.828125 23.21875 -41.125 C 23.21875 -57.515625 33.375 -68.265625 48.96875 -68.265625 C 64.6875 -68.265625 74.84375 -57.515625 74.84375 -41.125 C 74.84375 -24.828125 64.6875 -14.09375 48.96875 -14.09375 Z M 48.96875 -14.09375 "/></g></g></g><g fill="#ffffff" fill-opacity="1"><g transform="translate(306.181197, 114.038944)"><g><path d="M 39.96875 2.890625 C 61.09375 2.890625 75.890625 -7.5 75.890625 -24.71875 C 75.890625 -38.109375 67.34375 -45.734375 48.625 -48.859375 L 36.953125 -51.046875 C 28.40625 -52.671875 24.71875 -55.4375 24.71875 -60.40625 C 24.71875 -66.296875 29.796875 -70.578125 37.890625 -70.578125 C 45.859375 -70.578125 51.96875 -65.484375 53.015625 -57.515625 L 70.6875 -61.453125 C 68.609375 -75.765625 55.328125 -85.125 38.109375 -85.125 C 19.0625 -85.125 5.3125 -74.734375 5.3125 -58.5625 C 5.3125 -45.625 13.390625 -38.34375 31.53125 -34.875 L 42.96875 -32.6875 C 52.671875 -30.71875 56.703125 -27.71875 56.703125 -22.640625 C 56.703125 -16.28125 50.59375 -11.78125 40.765625 -11.78125 C 29.796875 -11.78125 21.71875 -18.25 20.5625 -28.0625 L 2.546875 -24.71875 C 4.390625 -6.9375 19.515625 2.890625 39.96875 2.890625 Z M 39.96875 2.890625 "/></g></g></g><g fill="#ffffff" fill-opacity="1"><g transform="translate(370.516066, 114.038944)"><g><path d="M 6.359375 0 L 25.984375 0 L 25.984375 -27.609375 L 44.921875 -27.609375 C 64.21875 -27.609375 77.03125 -38.578125 77.03125 -54.984375 C 77.03125 -71.265625 64.328125 -82.234375 45.15625 -82.234375 L 6.359375 -82.234375 Z M 25.984375 -42.265625 L 25.984375 -67.6875 L 42.046875 -67.6875 C 51.390625 -67.6875 57.28125 -62.59375 57.28125 -54.984375 C 57.28125 -47.359375 51.28125 -42.265625 42.046875 -42.265625 Z M 25.984375 -42.265625 "/></g></g></g><g fill="#ffffff" fill-opacity="1"><g transform="translate(436.583493, 114.038944)"><g><path d="M 6.359375 0 L 60.296875 0 L 60.296875 -16.984375 L 26.109375 -16.984375 L 26.109375 -82.234375 L 6.359375 -82.234375 Z M 6.359375 0 "/></g></g></g></svg>